# xmcd
#
# Track frame offsets: 
#        150
#        20776
#        46727
#        72228
#        95854
#        110855
#
# Disc length: 1895 seconds
#
# Revision: 0
# Processed by: cddbd v1.5.2PL0 Copyright (c) Steve Scherf et al.
# Submitted via: ExactAudioCopy v1.2
#
DISCID=55076506
DTITLE=侯德健 - 三十以后才明白
DYEAR=2017
DGENRE=Classical
TTITLE0=三十以后才明白
TTITLE1=一样的
TTITLE2=喂，老张
TTITLE3=我爱
TTITLE4=寂寞难耐
TTITLE5=出走
EXTD=
EXTT0=
EXTT1=
EXTT2=
EXTT3=
EXTT4=
EXTT5=
PLAYORDER=
